<?xml version="1.0" encoding="iso-8859-1"?>
<!-- Generator: Adobe Illustrator 19.0.0, SVG Export Plug-In . SVG Version: 6.00 Build 0)  -->
<svg version="1.1" id="Capa_1" xmlns="http://www.w3.org/2000/svg" xmlns:xlink="http://www.w3.org/1999/xlink" x="0px" y="0px"
	 viewBox="0 0 456.53 456.53" style="enable-background:new 0 0 456.53 456.53;" xml:space="preserve">
<path style="fill:#F19120;" d="M116.265,320.53c-26.51,0-48,21.49-48,48v88h320v-88c0-26.51-21.49-48-48-48H116.265z"/>
<path style="fill:#F2DBC0;" d="M328.265,152.53h-12v-41.872c-45.128-11.728-144-54.128-144-54.128l-32,80v16h-12
	c-11.046,0-20,8.954-20,20s8.954,20,20,20h12.56c2.482,30.148,20.446,56.843,47.44,70.496v65.504c0,22.091,17.909,40,40,40
	s40-17.909,40-40v-65.648c26.883-13.734,44.851-40.289,47.6-70.352h12.4c11.046,0,20-8.954,20-20S339.311,152.53,328.265,152.53z"/>
<g>
	<path style="fill:#30271F;" d="M188.265,190.53c-7.732,0-14-6.268-14-14s6.268-14,14-14s14,6.268,14,14
		C202.256,184.258,195.993,190.521,188.265,190.53z M188.265,174.53c-1.105,0-2,0.895-2,2c0,2.2,4,2.2,4,0
		C190.265,175.425,189.37,174.53,188.265,174.53z"/>
	<path style="fill:#30271F;" d="M268.265,190.53c-7.732,0-14-6.268-14-14s6.268-14,14-14s14,6.268,14,14
		C282.256,184.258,275.993,190.521,268.265,190.53z M268.265,174.53c-1.105,0-2,0.895-2,2c0,2.2,4,2.2,4,0
		C270.265,175.425,269.37,174.53,268.265,174.53z"/>
</g>
<path style="fill:#F0CAA8;" d="M228.265,246.53c-16.559-0.022-29.978-13.441-30-30h12c0,9.941,8.059,18,18,18s18-8.059,18-18h12
	C258.243,233.089,244.824,246.508,228.265,246.53z"/>
<g>
	<path style="fill:#DBC6AE;" d="M268.265,270.842v-8l0,0c-2.836,1.446-5.75,2.733-8.728,3.856c-0.432,0.168-0.864,0.32-1.304,0.48
		c-2.549,0.928-5.152,1.728-7.808,2.4c-0.72,0.192-1.432,0.384-2.152,0.56c-2.472,0.576-4.992,1.024-7.536,1.384
		c-0.8,0.12-1.6,0.28-2.4,0.376c-6.658,0.811-13.39,0.811-20.048,0c-0.8-0.096-1.6-0.256-2.4-0.376
		c-2.544-0.36-5.064-0.8-7.536-1.384c-0.72-0.176-1.432-0.368-2.152-0.56c-2.667-0.688-5.269-1.488-7.808-2.4
		c-0.44-0.16-0.872-0.312-1.304-0.48c-3.011-1.117-5.957-2.402-8.824-3.848l0,0v8l0,0c2.839,1.439,5.752,2.726,8.728,3.856
		c0.432,0.168,0.864,0.32,1.304,0.48c2.544,0.928,5.152,1.72,7.808,2.4c0.72,0.192,1.432,0.392,2.152,0.56
		c2.472,0.576,4.992,1.016,7.536,1.384c0.8,0.12,1.6,0.28,2.4,0.376c6.658,0.811,13.39,0.811,20.048,0
		c0.8-0.096,1.6-0.256,2.4-0.376c2.544-0.368,5.064-0.8,7.536-1.384c0.72-0.168,1.432-0.368,2.152-0.56
		c2.656-0.696,5.264-1.488,7.808-2.4c0.44-0.16,0.872-0.312,1.304-0.48c3.008-1.126,5.954-2.414,8.824-3.856V270.842z"/>
	<path style="fill:#DBC6AE;" d="M140.265,153.106l32-80c0,0,98.88,42.4,144,54.128v-16.576c-45.128-11.728-144-54.128-144-54.128
		l-32,80V153.106z"/>
</g>
<path style="fill:#4C3D24;" d="M324.265,120.53c-40-8-152-56-152-56l-32,88h-8l-8-48.576c0.018-43.016,26.516-81.581,66.664-97.024
	l0,0c24.033-9.24,50.639-9.24,74.672,0l0,0c40.148,15.443,66.646,54.008,66.664,97.024v16.576H324.265z"/>
<g>
</g>
<g>
</g>
<g>
</g>
<g>
</g>
<g>
</g>
<g>
</g>
<g>
</g>
<g>
</g>
<g>
</g>
<g>
</g>
<g>
</g>
<g>
</g>
<g>
</g>
<g>
</g>
<g>
</g>
</svg>
