<?xml version="1.0" encoding="iso-8859-1"?>
<!-- Generator: Adobe Illustrator 19.0.0, SVG Export Plug-In . SVG Version: 6.00 Build 0)  -->
<svg version="1.1" id="Capa_1" xmlns="http://www.w3.org/2000/svg" xmlns:xlink="http://www.w3.org/1999/xlink" x="0px" y="0px"
	 viewBox="0 0 456.528 456.528" style="enable-background:new 0 0 456.528 456.528;" xml:space="preserve">
<path style="fill:#954E22;" d="M108.264,336.528c-26.51,0-48,21.49-48,48v72h112l-24-120H108.264z"/>
<polygon style="fill:#2E2C44;" points="308.264,336.528 268.264,336.528 228.264,376.528 188.264,336.528 148.264,336.528 
	228.264,416.528 "/>
<polygon style="fill:#F19120;" points="228.264,416.528 148.264,336.528 172.264,456.528 284.264,456.528 308.264,336.528 "/>
<path style="fill:#954E22;" d="M348.264,336.528h-40l-24,120h112v-72C396.264,358.018,374.773,336.528,348.264,336.528z"/>
<g>
	<path style="fill:#EFD2B6;" d="M268.264,336.528v-37.536l-24.8,13.368c-9.47,5.098-20.866,5.098-30.336,0l-24.864-13.368v37.536
		l40,40L268.264,336.528z"/>
	<path style="fill:#EFD2B6;" d="M344.264,152.528h-20l-23.2-81.72c-7.265-18.165-27.88-27.002-46.045-19.737
		c-2.632,1.053-5.128,2.417-7.435,4.065c-11.667,8.336-27.209,8.816-39.368,1.216l-3.496-2.184
		c-16.59-10.37-38.445-5.327-48.815,11.263c-1.833,2.933-3.227,6.119-4.137,9.457l-19.504,77.64h-20c-11.046,0-20,8.954-20,20
		s8.954,20,20,20h12l39.304,35.072c37.713,30.572,91.679,30.572,129.392,0l39.304-35.072h12c11.046,0,20-8.954,20-20
		S355.309,152.528,344.264,152.528z"/>
</g>
<g>
	<path style="fill:#4C3D24;" d="M151.728,74.928c5.147-18.875,24.62-30.004,43.495-24.857c3.337,0.91,6.523,2.304,9.457,4.137
		l3.496,2.184c12.159,7.6,27.701,7.12,39.368-1.216c15.903-11.395,38.033-7.74,49.428,8.163c1.66,2.316,3.034,4.824,4.092,7.469
		l23.2,81.72h8l-2.56-95.008c1.481-23.644-14.358-44.891-37.44-50.224c-42.112-9.727-85.888-9.727-128,0
		c-23.109,5.329-38.999,26.558-37.6,50.232l-2.4,95h8L151.728,74.928z"/>
	<path style="fill:#4C3D24;" d="M265.528,244.104l-33.688-16.84c-2.251-1.125-4.901-1.125-7.152,0L191,244.104
		c-3.951,1.978-8.757,0.378-10.735-3.573c0-0.001-0.001-0.002-0.001-0.003l0,0c-1.978-3.951-0.378-8.757,3.573-10.735
		c0.001,0,0.002-0.001,0.003-0.001l40.848-20.424c2.251-1.125,4.901-1.125,7.152,0l40.848,20.424
		c3.952,1.976,5.553,6.781,3.577,10.733c0,0.001-0.001,0.002-0.001,0.003l0,0c-1.976,3.952-6.781,5.553-10.733,3.577
		C265.53,244.104,265.529,244.104,265.528,244.104z"/>
</g>
<g>
	<path style="fill:#30271F;" d="M188.264,190.528c-7.732,0-14-6.268-14-14s6.268-14,14-14s14,6.268,14,14
		C202.255,184.256,195.992,190.519,188.264,190.528z M188.264,174.528c-1.105,0-2,0.895-2,2c0,2.2,4,2.2,4,0
		C190.264,175.423,189.368,174.528,188.264,174.528z"/>
	<path style="fill:#30271F;" d="M268.264,190.528c-7.732,0-14-6.268-14-14s6.268-14,14-14s14,6.268,14,14
		C282.255,184.256,275.992,190.519,268.264,190.528z M268.264,174.528c-1.105,0-2,0.895-2,2c0,2.2,4,2.2,4,0
		C270.264,175.423,269.368,174.528,268.264,174.528z"/>
</g>
<path style="fill:#DBC6AE;" d="M268.264,298.992l-24.8,13.368c-9.47,5.098-20.866,5.098-30.336,0l-24.864-13.368v12.344l24.8,13.368
	c9.47,5.098,20.866,5.098,30.336,0l24.864-13.368V298.992z"/>
<polygon style="opacity:0.25;enable-background:new    ;" points="148.264,336.528 172.264,456.528 180.264,456.528 "/>
<polygon style="opacity:0.25;enable-background:new    ;" points="308.264,336.528 276.264,456.528 284.264,456.528 "/>
<path style="fill:#4C3D24;" d="M292.96,227.6c-37.713,30.572-91.679,30.572-129.392,0l-39.304-35.072v52.888
	c-0.006,11.766,6.446,22.587,16.8,28.176l72,38.768c9.47,5.098,20.866,5.098,30.336,0l72-38.768
	c10.379-5.572,16.857-16.396,16.864-28.176v-52.888L292.96,227.6z"/>
<g>
</g>
<g>
</g>
<g>
</g>
<g>
</g>
<g>
</g>
<g>
</g>
<g>
</g>
<g>
</g>
<g>
</g>
<g>
</g>
<g>
</g>
<g>
</g>
<g>
</g>
<g>
</g>
<g>
</g>
</svg>
