<?xml version="1.0" encoding="iso-8859-1"?>
<!-- Generator: Adobe Illustrator 19.0.0, SVG Export Plug-In . SVG Version: 6.00 Build 0)  -->
<svg version="1.1" id="Capa_1" xmlns="http://www.w3.org/2000/svg" xmlns:xlink="http://www.w3.org/1999/xlink" x="0px" y="0px"
	 viewBox="0 0 456.528 456.528" style="enable-background:new 0 0 456.528 456.528;" xml:space="preserve">
<g>
	<path style="fill:#F2DBC0;" d="M326.664,32.528h-0.08c0.943,1.664,1.782,3.385,2.512,5.152
		C328.392,35.914,327.58,34.193,326.664,32.528z"/>
	<path style="fill:#F2DBC0;" d="M344.264,152.528h-12l-39.2-98.056c-3.283-8.204,0.707-17.516,8.911-20.799
		c1.883-0.754,3.893-1.142,5.921-1.145h18.688c-7.438-12.813-19.872-21.954-34.32-25.232c-42.112-9.727-85.888-9.727-128,0
		c-14.458,3.27-26.902,12.412-34.344,25.232h18.712c8.837,0.013,15.99,7.186,15.977,16.023c-0.003,2.028-0.391,4.038-1.145,5.921
		l-39.2,98.056h-12c-11.046,0-20,8.954-20,20s8.954,20,20,20h12v48h60c27.824,13.308,60.176,13.308,88,0h60v-48h12
		c11.046,0,20-8.954,20-20S355.309,152.528,344.264,152.528z"/>
	<path style="fill:#F2DBC0;" d="M127.464,37.68c0.713-1.766,1.533-3.486,2.456-5.152C128.997,34.193,128.177,35.914,127.464,37.68z"
		/>
	<path style="fill:#F2DBC0;" d="M124.264,56.528c-0.096-1.912-0.064-3.828,0.096-5.736
		C124.199,52.699,124.167,54.616,124.264,56.528z"/>
	<path style="fill:#F2DBC0;" d="M125.4,43.952c0.467-1.887,1.058-3.742,1.768-5.552C126.453,40.208,125.862,42.063,125.4,43.952z"/>
	<path style="fill:#F2DBC0;" d="M124.488,49.424c0.181-1.801,0.478-3.589,0.888-5.352C124.967,45.835,124.67,47.622,124.488,49.424z
		"/>
	<path style="fill:#F2DBC0;" d="M228.264,224.08L228.264,224.08c0,0.144,0,0.312,0,0.448
		C228.264,224.392,228.264,224.224,228.264,224.08z"/>
	<path style="fill:#F2DBC0;" d="M329.392,38.408c0.712,1.806,1.301,3.658,1.76,5.544C330.687,42.067,330.099,40.215,329.392,38.408z
		"/>
	<path style="fill:#F2DBC0;" d="M332.184,50.792c0.159,1.908,0.186,3.824,0.08,5.736C332.37,54.616,332.343,52.699,332.184,50.792z"
		/>
	<path style="fill:#F2DBC0;" d="M331.184,44.08c0.407,1.763,0.701,3.551,0.88,5.352C331.882,47.631,331.588,45.844,331.184,44.08z"
		/>
</g>
<polygon style="fill:#4C3D24;" points="228.264,416.528 148.264,336.528 172.264,456.528 284.264,456.528 308.264,336.528 "/>
<g>
	<path style="fill:#C07029;" d="M348.264,336.528h-40l-24,120h112v-72C396.264,358.018,374.773,336.528,348.264,336.528z"/>
	<path style="fill:#C07029;" d="M108.264,336.528c-26.51,0-48,21.49-48,48v72h112l-24-120H108.264z"/>
</g>
<polygon style="fill:#4C3D24;" points="308.264,336.528 268.264,336.528 228.264,376.528 188.264,336.528 148.264,336.528 
	228.264,416.528 "/>
<g>
	<path style="fill:#F2DBC0;" d="M268.264,336.528v-37.536l-24.8,13.368c-9.47,5.098-20.866,5.098-30.336,0l-24.864-13.368v37.536
		l40,40L268.264,336.528z"/>
	<path style="fill:#F2DBC0;" d="M127.168,38.4l0.296-0.72L127.168,38.4z"/>
	<path style="fill:#F2DBC0;" d="M129.92,32.528L129.92,32.528L129.92,32.528z"/>
	<path style="fill:#F2DBC0;" d="M124.36,50.792c0-0.456,0.08-0.912,0.128-1.368C124.44,49.88,124.392,50.336,124.36,50.792z"/>
	<path style="fill:#F2DBC0;" d="M125.376,44.072v-0.12V44.072z"/>
</g>
<path style="fill:#EAEAEA;" d="M148.632,32.528H129.92c-0.923,1.666-1.743,3.386-2.456,5.152l-0.296,0.72
	c-0.71,1.81-1.301,3.665-1.768,5.552v0.12c-0.41,1.763-0.707,3.551-0.888,5.352c-0.048,0.456-0.096,0.912-0.128,1.368
	c-0.168,1.907-0.208,3.823-0.12,5.736v96l39.2-98.056c3.283-8.204-0.707-17.516-8.911-20.799
	C152.67,32.919,150.66,32.53,148.632,32.528z"/>
<g>
	<path style="fill:#F2DBC0;" d="M329.064,37.68c0.096,0.24,0.2,0.48,0.296,0.728C329.296,38.128,329.192,37.92,329.064,37.68z"/>
	<path style="fill:#F2DBC0;" d="M331.152,43.952v0.128V43.952z"/>
	<path style="fill:#F2DBC0;" d="M332.064,49.432c0.048,0.456,0.088,0.904,0.12,1.36C332.152,50.336,332.112,49.888,332.064,49.432z"
		/>
</g>
<g>
	<path style="fill:#EAEAEA;" d="M307.896,32.528c-8.837,0.013-15.99,7.186-15.977,16.023c0.003,2.028,0.391,4.038,1.145,5.921
		l39.2,98.056v-96c0.106-1.912,0.079-3.828-0.08-5.736c0-0.456-0.072-0.904-0.12-1.36c-0.179-1.801-0.473-3.589-0.88-5.352v-0.128
		c-0.459-1.886-1.048-3.738-1.76-5.544c-0.096-0.248-0.2-0.488-0.296-0.728c-0.714-1.767-1.537-3.487-2.464-5.152H307.896z"/>
	<path style="fill:#EAEAEA;" d="M302.008,219.52l-24.976-20c-5.671-4.527-12.712-6.993-19.968-6.992h-12.8
		c-8.704,0-15.768,22.4-16,31.552c9.928,0.006,19.72,2.32,28.6,6.76l17.504,8.752c-29,14.68-63.256,14.68-92.256,0l17.504-8.752
		c8.895-4.447,18.703-6.762,28.648-6.76c-0.232-9.152-7.296-31.552-16-31.552h-12.8c-7.27-0.001-14.324,2.473-20,7.016l-24.976,20
		l-30.224-27.016v52.888c-0.006,11.766,6.446,22.587,16.8,28.176l72,38.768c9.47,5.098,20.866,5.098,30.336,0l72-38.768
		c10.379-5.572,16.857-16.396,16.864-28.176v-52.888L302.008,219.52z"/>
</g>
<g>
	<path style="fill:#30271F;" d="M188.264,182.528c-7.732,0-14-6.268-14-14s6.268-14,14-14s14,6.268,14,14
		C202.255,176.256,195.992,182.519,188.264,182.528z M188.264,166.528c-1.105,0-2,0.895-2,2c0,2.2,4,2.2,4,0
		C190.264,167.423,189.368,166.528,188.264,166.528z"/>
	<path style="fill:#30271F;" d="M268.264,182.528c-7.732,0-14-6.268-14-14s6.268-14,14-14s14,6.268,14,14
		C282.255,176.256,275.992,182.519,268.264,182.528z M268.264,166.528c-1.105,0-2,0.895-2,2c0,2.2,4,2.2,4,0
		C270.264,167.423,269.368,166.528,268.264,166.528z"/>
</g>
<path style="fill:#DBC6AE;" d="M268.264,298.992l-24.8,13.368c-9.47,5.098-20.866,5.098-30.336,0l-24.864-13.368v12.344l24.8,13.368
	c9.47,5.098,20.866,5.098,30.336,0l24.864-13.368V298.992z"/>
<polygon style="opacity:0.25;enable-background:new    ;" points="148.264,336.528 172.264,456.528 180.264,456.528 "/>
<polygon style="opacity:0.25;enable-background:new    ;" points="308.264,336.528 276.264,456.528 284.264,456.528 "/>
<g>
</g>
<g>
</g>
<g>
</g>
<g>
</g>
<g>
</g>
<g>
</g>
<g>
</g>
<g>
</g>
<g>
</g>
<g>
</g>
<g>
</g>
<g>
</g>
<g>
</g>
<g>
</g>
<g>
</g>
</svg>
