<?xml version="1.0"?>
<svg xmlns="http://www.w3.org/2000/svg" xmlns:xlink="http://www.w3.org/1999/xlink" version="1.1" id="Layer_1" x="0px" y="0px" viewBox="0 0 64 64" enable-background="new 0 0 64 64" xml:space="preserve" width="512px" height="512px" class=""><g><g id="Question-mark">
	<circle cx="31.9781132" cy="50.3625984" r="2" data-original="#000000" class="active-path" data-old_color="#ffffff" fill="#ffffff"/>
	<path d="M31.5331993,13.3799c-6.2685986,0-10.1620865,3.8936005-10.1620865,10.1620998c0,0.5527,0.4471874,1,1,1   c0.5526867,0,1-0.4473,1-1c0-5.1875,2.9745865-8.1620998,8.1620865-8.1620998c7.8759995,0,9.0517006,5.6718998,9.0517006,9.0527   c0,3.2880993-2.7020988,7.0293007-6.285099,8.7012005c-4.0556889,1.8915977-3.3466873,8.5283012-3.3145008,8.8096008   c0.0576992,0.5107002,0.4902992,0.8866997,0.9922009,0.8866997c0.0380974,0,0.0761986-0.0020027,0.1142998-0.0068016   c0.5487976-0.0625,0.9433136-0.5577011,0.8798981-1.1064987c-0.0058975-0.0546989-0.5478973-5.5009995,2.1738014-6.7705002   c4.3105011-2.0116997,7.4393997-6.4336014,7.4393997-10.5137005C42.5848999,17.5116997,38.4531136,13.3799,31.5331993,13.3799z" data-original="#000000" class="active-path" data-old_color="#ffffff" fill="#ffffff"/>
	<path d="M32,0c-17.6730995,0-32,14.3268995-32,32s14.3268995,32,32,32s32-14.3269005,32-32S49.673111,0,32,0z M32,62   c-16.542099,0-30-13.457901-30-30c0-16.5419998,13.4578991-30,30-30c16.5419998,0,30,13.4580002,30,30   C62,48.542099,48.5419998,62,32,62z" data-original="#000000" class="active-path" data-old_color="#ffffff" fill="#ffffff"/>
</g></g> </svg>
