<?xml version="1.0"?>
<svg xmlns="http://www.w3.org/2000/svg" xmlns:xlink="http://www.w3.org/1999/xlink" version="1.1" id="Capa_1" x="0px" y="0px" viewBox="0 0 512 512" style="enable-background:new 0 0 512 512;" xml:space="preserve" width="512px" height="512px" class=""><g><g>
	<g>
		<path d="M85.333,119.467c-14.114,0-25.6,11.486-25.6,25.6v68.267c0,14.114,11.486,25.6,25.6,25.6s25.6-11.486,25.6-25.6v-68.267    C110.933,130.953,99.447,119.467,85.333,119.467z M93.867,213.333c0,4.71-3.823,8.533-8.533,8.533s-8.533-3.823-8.533-8.533    v-68.267c0-4.71,3.823-8.533,8.533-8.533s8.533,3.823,8.533,8.533V213.333z" data-original="#000000" class="active-path" data-old_color="#ffffff" fill="#ffffff"/>
	</g>
</g><g>
	<g>
		<path d="M426.667,119.467c-14.114,0-25.6,11.486-25.6,25.6v68.267c0,14.114,11.486,25.6,25.6,25.6s25.6-11.486,25.6-25.6v-68.267    C452.267,130.953,440.781,119.467,426.667,119.467z M435.2,213.333c0,4.71-3.823,8.533-8.533,8.533s-8.533-3.823-8.533-8.533    v-68.267c0-4.71,3.823-8.533,8.533-8.533s8.533,3.823,8.533,8.533V213.333z" data-original="#000000" class="active-path" data-old_color="#ffffff" fill="#ffffff"/>
	</g>
</g><g>
	<g>
		<path d="M427.162,127.454C404.48,52.412,334.097,0,256,0S107.52,52.412,84.838,127.454c-1.365,4.506,1.186,9.276,5.7,10.633    c4.523,1.374,9.276-1.186,10.641-5.7C121.702,64.495,185.361,17.067,256,17.067s134.298,47.428,154.82,115.32    c1.118,3.695,4.506,6.067,8.166,6.067c0.819,0,1.647-0.12,2.475-0.367C425.975,136.73,428.527,131.959,427.162,127.454z" data-original="#000000" class="active-path" data-old_color="#ffffff" fill="#ffffff"/>
	</g>
</g><g>
	<g>
		<path d="M426.667,221.867c-4.71,0-8.533,3.814-8.533,8.533c0,23.526-19.14,42.667-42.667,42.667c-4.71,0-8.533,3.814-8.533,8.533    c0,4.719,3.823,8.533,8.533,8.533c32.939,0,59.733-26.803,59.733-59.733C435.2,225.681,431.377,221.867,426.667,221.867z" data-original="#000000" class="active-path" data-old_color="#ffffff" fill="#ffffff"/>
	</g>
</g><g>
	<g>
		<path d="M358.4,247.467h-51.2c-14.114,0-25.6,11.486-25.6,25.6v17.067c0,14.114,11.486,25.6,25.6,25.6h51.2    c14.114,0,25.6-11.486,25.6-25.6v-17.067C384,258.953,372.514,247.467,358.4,247.467z M366.933,290.133    c0,4.71-3.823,8.533-8.533,8.533h-51.2c-4.71,0-8.533-3.823-8.533-8.533v-17.067c0-4.71,3.823-8.533,8.533-8.533h51.2    c4.71,0,8.533,3.823,8.533,8.533V290.133z" data-original="#000000" class="active-path" data-old_color="#ffffff" fill="#ffffff"/>
	</g>
</g><g>
	<g>
		<path d="M256,42.667c-75.29,0-136.533,61.252-136.533,136.533S180.71,315.733,256,315.733c13.926,0,27.716-2.108,40.986-6.272    c2.748-0.87,4.881-3.063,5.658-5.837c0.777-2.782,0.102-5.76-1.801-7.936c-0.99-1.126-2.176-3.012-2.176-5.555v-17.067    c0-4.71,3.823-8.533,8.533-8.533h51.021c2.688,0,5.214-1.254,6.827-3.396c17.98-23.902,27.486-52.233,27.486-81.937    C392.533,103.919,331.29,42.667,256,42.667z M353.877,247.467H307.2c-14.114,0-25.6,11.486-25.6,25.6v17.067    c0,1.903,0.222,3.789,0.649,5.623c-8.602,1.937-17.391,2.91-26.249,2.91c-65.877,0-119.467-53.589-119.467-119.467    S190.123,59.733,256,59.733S375.467,113.323,375.467,179.2C375.467,203.776,368.017,227.294,353.877,247.467z" data-original="#000000" class="active-path" data-old_color="#ffffff" fill="#ffffff"/>
	</g>
</g><g>
	<g>
		<path d="M344.644,332.8H167.347c-54.63,0-99.081,44.45-99.081,99.081v71.586c0,4.719,3.823,8.533,8.533,8.533h358.4    c4.71,0,8.533-3.814,8.533-8.533v-71.586C443.733,377.25,399.283,332.8,344.644,332.8z M426.667,494.933H85.333v-63.053    c0-45.218,36.796-82.014,82.014-82.014h177.306c45.218,0,82.014,36.787,82.014,82.014V494.933z" data-original="#000000" class="active-path" data-old_color="#ffffff" fill="#ffffff"/>
	</g>
</g><g>
	<g>
		<path d="M145.067,435.2c-4.71,0-8.533,3.814-8.533,8.533v59.733c0,4.719,3.823,8.533,8.533,8.533s8.533-3.814,8.533-8.533v-59.733    C153.6,439.014,149.777,435.2,145.067,435.2z" data-original="#000000" class="active-path" data-old_color="#ffffff" fill="#ffffff"/>
	</g>
</g><g>
	<g>
		<path d="M375.467,435.2c-4.71,0-8.533,3.814-8.533,8.533v59.733c0,4.719,3.823,8.533,8.533,8.533s8.533-3.814,8.533-8.533v-59.733    C384,439.014,380.177,435.2,375.467,435.2z" data-original="#000000" class="active-path" data-old_color="#ffffff" fill="#ffffff"/>
	</g>
</g></g> </svg>
