<svg id="svg" version="1.1" width="400" height="177.77777777777777" viewBox="0 0 400 177.77777777777777" xmlns="http://www.w3.org/2000/svg" xmlns:xlink="http://www.w3.org/1999/xlink" ><g id="svgg"><path id="path0" d="M6.933 0.178 C 6.933 0.276,6.646 0.356,6.294 0.356 C 5.805 0.356,5.634 0.439,5.563 0.711 C 5.493 0.978,5.320 1.067,4.868 1.067 C 4.475 1.067,4.267 1.152,4.267 1.313 C 4.267 1.448,4.107 1.600,3.911 1.652 C 3.716 1.703,3.556 1.872,3.556 2.028 C 3.556 2.184,3.436 2.311,3.289 2.311 C 3.141 2.311,3.022 2.469,3.022 2.667 C 3.022 2.904,2.904 3.022,2.667 3.022 C 2.469 3.022,2.311 3.141,2.311 3.289 C 2.311 3.436,2.184 3.556,2.028 3.556 C 1.872 3.556,1.703 3.716,1.652 3.911 C 1.600 4.107,1.448 4.267,1.313 4.267 C 1.152 4.267,1.067 4.475,1.067 4.868 C 1.067 5.320,0.978 5.493,0.711 5.563 C 0.439 5.634,0.356 5.805,0.356 6.294 C 0.356 6.646,0.276 6.933,0.178 6.933 C 0.060 6.933,0.000 34.370,0.000 88.889 C 0.000 143.407,0.060 170.844,0.178 170.844 C 0.276 170.844,0.356 171.164,0.356 171.556 C 0.356 172.148,0.415 172.267,0.711 172.267 C 0.999 172.267,1.067 172.385,1.067 172.889 C 1.067 173.323,1.147 173.511,1.333 173.511 C 1.480 173.511,1.600 173.639,1.600 173.794 C 1.600 173.950,1.760 174.120,1.956 174.171 C 2.151 174.222,2.311 174.374,2.311 174.510 C 2.311 174.645,2.471 174.756,2.667 174.756 C 2.904 174.756,3.022 174.874,3.022 175.111 C 3.022 175.309,3.141 175.467,3.289 175.467 C 3.436 175.467,3.556 175.594,3.556 175.750 C 3.556 175.906,3.716 176.075,3.911 176.126 C 4.107 176.177,4.267 176.330,4.267 176.465 C 4.267 176.626,4.475 176.711,4.868 176.711 C 5.320 176.711,5.493 176.799,5.563 177.067 C 5.634 177.339,5.805 177.422,6.294 177.422 C 6.646 177.422,6.933 177.502,6.933 177.600 C 6.933 177.718,65.985 177.778,183.733 177.778 C 301.481 177.778,360.533 177.718,360.533 177.600 C 360.533 177.502,360.813 177.422,361.154 177.422 C 361.582 177.422,361.844 177.312,361.997 177.067 C 362.119 176.871,362.400 176.711,362.621 176.711 C 362.859 176.711,363.022 176.603,363.022 176.444 C 363.022 176.296,363.180 176.178,363.378 176.178 C 363.573 176.178,363.893 176.018,364.089 175.822 C 364.284 175.627,364.564 175.467,364.711 175.467 C 364.859 175.467,364.978 175.309,364.978 175.111 C 364.978 174.916,365.089 174.756,365.225 174.756 C 365.497 174.756,365.689 174.382,365.689 173.852 C 365.689 173.630,365.812 173.511,366.044 173.511 C 366.281 173.511,366.400 173.393,366.400 173.156 C 366.400 172.958,366.519 172.800,366.667 172.800 C 366.851 172.800,366.933 172.615,366.933 172.199 C 366.933 171.747,367.022 171.574,367.289 171.504 C 367.586 171.426,367.644 171.262,367.644 170.506 C 367.644 169.837,367.738 169.507,368.000 169.244 C 368.352 168.893,368.356 168.652,368.356 146.400 L 368.356 123.911 378.830 123.911 C 389.420 123.911,389.867 123.892,389.867 123.448 C 389.867 123.254,390.218 123.200,391.467 123.200 C 392.948 123.200,393.067 123.174,393.067 122.844 C 393.067 122.548,393.185 122.489,393.778 122.489 C 394.291 122.489,394.489 122.415,394.489 122.222 C 394.489 122.043,394.669 121.956,395.039 121.956 C 395.439 121.956,395.614 121.859,395.682 121.600 C 395.733 121.403,395.924 121.244,396.110 121.244 C 396.309 121.244,396.446 121.118,396.448 120.933 C 396.450 120.759,396.704 120.505,397.026 120.356 C 397.380 120.191,397.622 119.935,397.657 119.689 C 397.693 119.432,397.836 119.289,398.057 119.289 C 398.281 119.289,398.400 119.166,398.400 118.933 C 398.400 118.736,398.519 118.578,398.667 118.578 C 398.853 118.578,398.933 118.390,398.933 117.956 C 398.933 117.452,399.001 117.333,399.289 117.333 C 399.577 117.333,399.644 117.215,399.644 116.711 C 399.644 116.369,399.724 116.089,399.822 116.089 C 399.940 116.089,400.000 106.933,400.000 88.978 C 400.000 71.022,399.940 61.867,399.822 61.867 C 399.724 61.867,399.644 61.579,399.644 61.228 C 399.644 60.738,399.561 60.567,399.289 60.496 C 399.022 60.426,398.933 60.253,398.933 59.801 C 398.933 59.385,398.851 59.200,398.667 59.200 C 398.520 59.200,398.400 59.073,398.400 58.917 C 398.400 58.761,398.247 58.593,398.060 58.544 C 397.872 58.495,397.672 58.270,397.615 58.043 C 397.558 57.814,397.274 57.525,396.978 57.394 C 396.677 57.261,396.444 57.021,396.444 56.845 C 396.444 56.652,396.309 56.533,396.089 56.533 C 395.891 56.533,395.733 56.415,395.733 56.267 C 395.733 56.080,395.546 56.000,395.111 56.000 C 394.607 56.000,394.489 55.932,394.489 55.644 C 394.489 55.348,394.370 55.289,393.778 55.289 C 393.185 55.289,393.067 55.230,393.067 54.933 C 393.067 54.604,392.948 54.578,391.467 54.578 C 390.163 54.578,389.867 54.528,389.867 54.311 C 389.867 54.077,388.553 54.044,379.113 54.044 L 368.360 54.044 368.313 31.363 C 368.269 9.999,368.249 8.669,367.956 8.455 C 367.728 8.288,367.644 7.978,367.644 7.297 C 367.644 6.516,367.587 6.352,367.289 6.274 C 367.022 6.204,366.933 6.031,366.933 5.579 C 366.933 5.186,366.848 4.978,366.687 4.978 C 366.552 4.978,366.400 4.818,366.348 4.622 C 366.297 4.427,366.128 4.267,365.972 4.267 C 365.789 4.267,365.689 4.110,365.689 3.824 C 365.689 3.573,365.534 3.284,365.333 3.159 C 365.138 3.037,364.978 2.833,364.978 2.707 C 364.978 2.581,364.844 2.426,364.680 2.364 C 364.517 2.301,364.237 2.103,364.058 1.925 C 363.879 1.746,363.573 1.600,363.378 1.600 C 363.180 1.600,363.022 1.481,363.022 1.333 C 363.022 1.175,362.859 1.067,362.621 1.067 C 362.400 1.067,362.119 0.907,361.997 0.711 C 361.844 0.466,361.582 0.356,361.154 0.356 C 360.813 0.356,360.533 0.276,360.533 0.178 C 360.533 0.059,301.481 0.000,183.733 0.000 C 65.985 0.000,6.933 0.059,6.933 0.178 M336.356 89.867 L 336.356 149.333 292.889 149.333 L 249.422 149.333 249.422 148.711 C 249.422 148.277,249.503 148.089,249.689 148.089 C 249.837 148.089,249.956 147.931,249.956 147.733 C 249.956 147.496,250.074 147.378,250.311 147.378 C 250.599 147.378,250.667 147.259,250.667 146.756 C 250.667 146.305,250.745 146.133,250.950 146.133 C 251.106 146.133,251.275 145.973,251.326 145.778 C 251.377 145.582,251.530 145.422,251.665 145.422 C 251.800 145.422,251.911 145.262,251.911 145.067 C 251.911 144.830,252.030 144.711,252.267 144.711 C 252.554 144.711,252.622 144.593,252.622 144.089 C 252.622 143.585,252.690 143.467,252.978 143.467 C 253.215 143.467,253.333 143.348,253.333 143.111 C 253.333 142.914,253.452 142.756,253.600 142.756 C 253.747 142.756,253.867 142.636,253.867 142.489 C 253.867 142.341,254.025 142.222,254.222 142.222 C 254.519 142.222,254.578 142.104,254.578 141.511 C 254.578 140.919,254.637 140.800,254.933 140.800 C 255.131 140.800,255.289 140.681,255.289 140.533 C 255.289 140.387,255.409 140.267,255.556 140.267 C 255.748 140.267,255.822 140.069,255.822 139.556 C 255.822 138.963,255.881 138.844,256.178 138.844 C 256.375 138.844,256.533 138.726,256.533 138.578 C 256.533 138.431,256.661 138.311,256.817 138.311 C 256.972 138.311,257.142 138.151,257.193 137.956 C 257.244 137.760,257.397 137.600,257.532 137.600 C 257.694 137.600,257.778 137.389,257.778 136.978 C 257.778 136.474,257.846 136.356,258.133 136.356 C 258.370 136.356,258.489 136.237,258.489 136.000 C 258.489 135.763,258.607 135.644,258.844 135.644 C 259.081 135.644,259.200 135.526,259.200 135.289 C 259.200 135.091,259.319 134.933,259.467 134.933 C 259.653 134.933,259.733 134.746,259.733 134.311 C 259.733 133.807,259.801 133.689,260.089 133.689 C 260.326 133.689,260.444 133.570,260.444 133.333 C 260.444 133.096,260.563 132.978,260.800 132.978 C 261.037 132.978,261.156 132.859,261.156 132.622 C 261.156 132.425,261.274 132.267,261.422 132.267 C 261.608 132.267,261.689 132.079,261.689 131.644 C 261.689 131.141,261.757 131.022,262.044 131.022 C 262.281 131.022,262.400 130.904,262.400 130.667 C 262.400 130.430,262.519 130.311,262.756 130.311 C 263.043 130.311,263.111 130.193,263.111 129.689 C 263.111 129.254,263.192 129.067,263.378 129.067 C 263.526 129.067,263.644 128.909,263.644 128.711 C 263.644 128.474,263.763 128.356,264.000 128.356 C 264.198 128.356,264.356 128.237,264.356 128.089 C 264.356 127.941,264.514 127.822,264.711 127.822 C 265.007 127.822,265.067 127.704,265.067 127.111 C 265.067 126.598,265.141 126.400,265.333 126.400 C 265.480 126.400,265.600 126.280,265.600 126.133 C 265.600 125.985,265.758 125.867,265.956 125.867 C 266.193 125.867,266.311 125.748,266.311 125.511 C 266.311 125.274,266.430 125.156,266.667 125.156 C 266.954 125.156,267.022 125.037,267.022 124.533 C 267.022 124.083,267.100 123.911,267.306 123.911 C 267.461 123.911,267.631 123.751,267.682 123.556 C 267.733 123.360,267.885 123.200,268.021 123.200 C 268.156 123.200,268.267 123.040,268.267 122.844 C 268.267 122.607,268.385 122.489,268.622 122.489 C 268.910 122.489,268.978 122.370,268.978 121.867 C 268.978 121.363,269.046 121.244,269.333 121.244 C 269.570 121.244,269.689 121.126,269.689 120.889 C 269.689 120.691,269.807 120.533,269.956 120.533 C 270.142 120.533,270.222 120.346,270.222 119.911 C 270.222 119.407,270.290 119.289,270.578 119.289 C 270.815 119.289,270.933 119.170,270.933 118.933 C 270.933 118.696,271.052 118.578,271.289 118.578 C 271.486 118.578,271.644 118.459,271.644 118.311 C 271.644 118.164,271.764 118.044,271.911 118.044 C 272.104 118.044,272.178 117.847,272.178 117.333 C 272.178 116.741,272.237 116.622,272.533 116.622 C 272.729 116.622,272.889 116.512,272.889 116.376 C 272.889 116.241,273.049 116.089,273.244 116.037 C 273.440 115.986,273.600 115.817,273.600 115.661 C 273.600 115.505,273.720 115.378,273.867 115.378 C 274.053 115.378,274.133 115.190,274.133 114.756 C 274.133 114.252,274.201 114.133,274.489 114.133 C 274.726 114.133,274.844 114.015,274.844 113.778 C 274.844 113.541,274.963 113.422,275.200 113.422 C 275.437 113.422,275.556 113.304,275.556 113.067 C 275.556 112.869,275.674 112.711,275.822 112.711 C 276.008 112.711,276.089 112.523,276.089 112.089 C 276.089 111.585,276.157 111.467,276.444 111.467 C 276.681 111.467,276.800 111.348,276.800 111.111 C 276.800 110.874,276.919 110.756,277.156 110.756 C 277.443 110.756,277.511 110.637,277.511 110.133 C 277.511 109.699,277.592 109.511,277.778 109.511 C 277.926 109.511,278.044 109.353,278.044 109.156 C 278.044 108.919,278.163 108.800,278.400 108.800 C 278.637 108.800,278.756 108.681,278.756 108.444 C 278.756 108.207,278.874 108.089,279.111 108.089 C 279.399 108.089,279.467 107.970,279.467 107.467 C 279.467 107.032,279.547 106.844,279.733 106.844 C 279.881 106.844,280.000 106.686,280.000 106.489 C 280.000 106.252,280.119 106.133,280.356 106.133 C 280.553 106.133,280.711 106.015,280.711 105.867 C 280.711 105.719,280.869 105.600,281.067 105.600 C 281.363 105.600,281.422 105.481,281.422 104.889 C 281.422 104.375,281.496 104.178,281.689 104.178 C 281.836 104.178,281.956 104.058,281.956 103.911 C 281.956 103.763,282.114 103.644,282.311 103.644 C 282.607 103.644,282.667 103.526,282.667 102.933 C 282.667 102.341,282.726 102.222,283.022 102.222 C 283.220 102.222,283.378 102.104,283.378 101.956 C 283.378 101.809,283.498 101.689,283.644 101.689 C 283.793 101.689,283.911 101.531,283.911 101.333 C 283.911 101.096,284.030 100.978,284.267 100.978 C 284.554 100.978,284.622 100.859,284.622 100.356 C 284.622 99.852,284.690 99.733,284.978 99.733 C 285.215 99.733,285.333 99.615,285.333 99.378 C 285.333 99.180,285.452 99.022,285.600 99.022 C 285.748 99.022,285.867 98.864,285.867 98.667 C 285.867 98.430,285.985 98.311,286.222 98.311 C 286.510 98.311,286.578 98.193,286.578 97.689 C 286.578 97.185,286.646 97.067,286.933 97.067 C 287.170 97.067,287.289 96.948,287.289 96.711 C 287.289 96.514,287.407 96.356,287.556 96.356 C 287.702 96.356,287.822 96.236,287.822 96.089 C 287.822 95.941,287.980 95.822,288.178 95.822 C 288.474 95.822,288.533 95.704,288.533 95.111 C 288.533 94.519,288.593 94.400,288.889 94.400 C 289.084 94.400,289.244 94.289,289.244 94.154 C 289.244 94.019,289.404 93.866,289.600 93.815 C 289.872 93.744,289.956 93.573,289.956 93.083 C 289.956 92.634,290.035 92.444,290.222 92.444 C 290.369 92.444,290.489 92.324,290.489 92.178 C 290.489 92.030,290.647 91.911,290.844 91.911 C 291.081 91.911,291.200 91.793,291.200 91.556 C 291.200 91.319,291.319 91.200,291.556 91.200 C 291.843 91.200,291.911 91.081,291.911 90.578 C 291.911 90.143,291.992 89.956,292.178 89.956 C 292.326 89.956,292.444 89.798,292.444 89.600 C 292.444 89.363,292.563 89.244,292.800 89.244 C 293.037 89.244,293.156 89.126,293.156 88.889 C 293.156 88.652,293.274 88.533,293.511 88.533 C 293.799 88.533,293.867 88.415,293.867 87.911 C 293.867 87.477,293.947 87.289,294.133 87.289 C 294.281 87.289,294.400 87.131,294.400 86.933 C 294.400 86.696,294.519 86.578,294.756 86.578 C 294.993 86.578,295.111 86.459,295.111 86.222 C 295.111 85.985,295.230 85.867,295.467 85.867 C 295.754 85.867,295.822 85.748,295.822 85.244 C 295.822 84.810,295.903 84.622,296.089 84.622 C 296.237 84.622,296.356 84.464,296.356 84.267 C 296.356 84.030,296.474 83.911,296.711 83.911 C 296.999 83.911,297.067 83.793,297.067 83.289 C 297.067 82.785,297.134 82.667,297.422 82.667 C 297.659 82.667,297.778 82.548,297.778 82.311 C 297.778 82.114,297.896 81.956,298.044 81.956 C 298.191 81.956,298.311 81.836,298.311 81.689 C 298.311 81.541,298.469 81.422,298.667 81.422 C 298.963 81.422,299.022 81.304,299.022 80.711 C 299.022 80.119,299.081 80.000,299.378 80.000 C 299.575 80.000,299.733 79.881,299.733 79.733 C 299.733 79.587,299.853 79.467,300.000 79.467 C 300.148 79.467,300.267 79.309,300.267 79.111 C 300.267 78.874,300.385 78.756,300.622 78.756 C 300.910 78.756,300.978 78.637,300.978 78.133 C 300.978 77.683,301.056 77.511,301.261 77.511 C 301.417 77.511,301.586 77.351,301.637 77.156 C 301.689 76.960,301.841 76.800,301.976 76.800 C 302.139 76.800,302.222 76.589,302.222 76.178 C 302.222 75.674,302.290 75.556,302.578 75.556 C 302.815 75.556,302.933 75.437,302.933 75.200 C 302.933 74.963,303.052 74.844,303.289 74.844 C 303.526 74.844,303.644 74.726,303.644 74.489 C 303.644 74.291,303.763 74.133,303.911 74.133 C 304.097 74.133,304.178 73.946,304.178 73.511 C 304.178 73.007,304.246 72.889,304.533 72.889 C 304.770 72.889,304.889 72.770,304.889 72.533 C 304.889 72.296,305.007 72.178,305.244 72.178 C 305.442 72.178,305.600 72.059,305.600 71.911 C 305.600 71.764,305.720 71.644,305.867 71.644 C 306.059 71.644,306.133 71.447,306.133 70.933 C 306.133 70.341,306.193 70.222,306.489 70.222 C 306.686 70.222,306.844 70.104,306.844 69.956 C 306.844 69.807,307.002 69.689,307.200 69.689 C 307.437 69.689,307.556 69.570,307.556 69.333 C 307.556 69.136,307.674 68.978,307.822 68.978 C 308.008 68.978,308.089 68.790,308.089 68.356 C 308.089 67.852,308.157 67.733,308.444 67.733 C 308.681 67.733,308.800 67.615,308.800 67.378 C 308.800 67.141,308.919 67.022,309.156 67.022 C 309.452 67.022,309.511 66.904,309.511 66.311 C 309.511 65.798,309.585 65.600,309.778 65.600 C 309.924 65.600,310.044 65.480,310.044 65.333 C 310.044 65.185,310.202 65.067,310.400 65.067 C 310.637 65.067,310.756 64.948,310.756 64.711 C 310.756 64.474,310.874 64.356,311.111 64.356 C 311.399 64.356,311.467 64.237,311.467 63.733 C 311.467 63.230,311.534 63.111,311.822 63.111 C 312.059 63.111,312.178 62.993,312.178 62.756 C 312.178 62.558,312.296 62.400,312.444 62.400 C 312.593 62.400,312.711 62.242,312.711 62.044 C 312.711 61.807,312.830 61.689,313.067 61.689 C 313.354 61.689,313.422 61.570,313.422 61.067 C 313.422 60.563,313.490 60.444,313.778 60.444 C 314.015 60.444,314.133 60.326,314.133 60.089 C 314.133 59.891,314.252 59.733,314.400 59.733 C 314.547 59.733,314.667 59.613,314.667 59.467 C 314.667 59.319,314.825 59.200,315.022 59.200 C 315.319 59.200,315.378 59.081,315.378 58.489 C 315.378 57.896,315.437 57.778,315.733 57.778 C 315.931 57.778,316.089 57.659,316.089 57.511 C 316.089 57.364,316.209 57.244,316.356 57.244 C 316.548 57.244,316.622 57.047,316.622 56.533 C 316.622 55.941,316.681 55.822,316.978 55.822 C 317.175 55.822,317.333 55.704,317.333 55.556 C 317.333 55.409,317.461 55.289,317.617 55.289 C 317.772 55.289,317.942 55.129,317.993 54.933 C 318.044 54.738,318.197 54.578,318.332 54.578 C 318.494 54.578,318.578 54.367,318.578 53.956 C 318.578 53.452,318.646 53.333,318.933 53.333 C 319.170 53.333,319.289 53.215,319.289 52.978 C 319.289 52.741,319.407 52.622,319.644 52.622 C 319.881 52.622,320.000 52.504,320.000 52.267 C 320.000 52.069,320.119 51.911,320.267 51.911 C 320.453 51.911,320.533 51.723,320.533 51.289 C 320.533 50.785,320.601 50.667,320.889 50.667 C 321.126 50.667,321.244 50.548,321.244 50.311 C 321.244 50.074,321.363 49.956,321.600 49.956 C 321.798 49.956,321.956 49.837,321.956 49.689 C 321.956 49.542,322.076 49.422,322.222 49.422 C 322.415 49.422,322.489 49.225,322.489 48.711 C 322.489 48.119,322.548 48.000,322.844 48.000 C 323.040 48.000,323.200 47.889,323.200 47.754 C 323.200 47.619,323.360 47.466,323.556 47.415 C 323.828 47.344,323.911 47.173,323.911 46.683 C 323.911 46.234,323.990 46.044,324.178 46.044 C 324.324 46.044,324.444 45.924,324.444 45.778 C 324.444 45.630,324.602 45.511,324.800 45.511 C 325.037 45.511,325.156 45.393,325.156 45.156 C 325.156 44.919,325.274 44.800,325.511 44.800 C 325.807 44.800,325.867 44.681,325.867 44.089 C 325.867 43.575,325.941 43.378,326.133 43.378 C 326.280 43.378,326.400 43.258,326.400 43.111 C 326.400 42.963,326.558 42.844,326.756 42.844 C 326.993 42.844,327.111 42.726,327.111 42.489 C 327.111 42.252,327.230 42.133,327.467 42.133 C 327.754 42.133,327.822 42.015,327.822 41.511 C 327.822 41.077,327.903 40.889,328.089 40.889 C 328.237 40.889,328.356 40.731,328.356 40.533 C 328.356 40.296,328.474 40.178,328.711 40.178 C 328.999 40.178,329.067 40.059,329.067 39.556 C 329.067 39.052,329.134 38.933,329.422 38.933 C 329.659 38.933,329.778 38.815,329.778 38.578 C 329.778 38.380,329.896 38.222,330.044 38.222 C 330.193 38.222,330.311 38.064,330.311 37.867 C 330.311 37.630,330.430 37.511,330.667 37.511 C 330.954 37.511,331.022 37.393,331.022 36.889 C 331.022 36.385,331.090 36.267,331.378 36.267 C 331.615 36.267,331.733 36.148,331.733 35.911 C 331.733 35.714,331.852 35.556,332.000 35.556 C 332.147 35.556,332.267 35.436,332.267 35.289 C 332.267 35.141,332.425 35.022,332.622 35.022 C 332.919 35.022,332.978 34.904,332.978 34.311 C 332.978 33.719,333.037 33.600,333.333 33.600 C 333.531 33.600,333.689 33.481,333.689 33.333 C 333.689 33.187,333.816 33.067,333.972 33.067 C 334.128 33.067,334.297 32.907,334.348 32.711 C 334.400 32.516,334.552 32.356,334.687 32.356 C 334.850 32.356,334.933 32.145,334.933 31.733 C 334.933 31.230,335.001 31.111,335.289 31.111 C 335.526 31.111,335.644 30.993,335.644 30.756 C 335.644 30.519,335.763 30.400,336.000 30.400 C 336.355 30.400,336.356 30.519,336.356 89.867 " stroke="none" fill="#04fcfc" fill-rule="evenodd"></path><path id="path1" d="" stroke="none" fill="#08fcfc" fill-rule="evenodd"></path><path id="path2" d="" stroke="none" fill="#08fcfc" fill-rule="evenodd"></path><path id="path3" d="" stroke="none" fill="#08fcfc" fill-rule="evenodd"></path><path id="path4" d="" stroke="none" fill="#08fcfc" fill-rule="evenodd"></path></g></svg>