<?xml version="1.0" standalone="no"?>
<!DOCTYPE svg PUBLIC "-//W3C//DTD SVG 20010904//EN"
 "http://www.w3.org/TR/2001/REC-SVG-20010904/DTD/svg10.dtd">
<svg version="1.0" xmlns="http://www.w3.org/2000/svg"
 width="780.000000pt" height="265.000000pt" viewBox="0 0 780.000000 265.000000"
 preserveAspectRatio="xMidYMid meet">

<g transform="translate(0.000000,265.000000) scale(0.100000,-0.100000)"
fill="#000000" stroke="none">
<path d="M0 1325 l0 -1325 3900 0 3900 0 0 1325 0 1325 -3900 0 -3900 0 0
-1325z m2380 545 c0 -28 3 -30 35 -30 l35 0 0 -59 0 -60 -32 -3 c-29 -3 -33
-6 -33 -33 0 -27 4 -30 33 -33 l33 -3 -3 -57 c-3 -56 -3 -57 -35 -60 -29 -3
-33 -7 -33 -33 l0 -29 -180 0 -180 0 0 215 0 215 180 0 180 0 0 -30z m922
-152 l3 -183 63 -3 c61 -3 62 -3 62 -32 l0 -30 -185 0 -185 0 0 30 c0 29 1 29
63 32 l62 3 0 150 0 150 -27 3 c-24 3 -28 8 -28 33 l0 29 85 0 85 0 2 -182z
m2558 -33 l0 -215 -185 0 -185 0 0 29 c0 24 -5 30 -30 35 l-30 6 0 85 0 86 30
6 c23 4 30 11 30 28 0 31 15 35 141 35 l109 0 0 60 0 60 60 0 60 0 0 -215z
m-2990 66 c0 -26 4 -30 33 -33 l32 -3 0 -60 0 -60 -152 -3 -153 -3 0 -29 0
-30 120 0 120 0 0 -30 0 -30 -150 0 -150 0 0 29 c0 24 -5 30 -30 35 l-30 6 0
85 0 86 30 6 c23 4 30 11 30 28 0 13 6 26 13 28 6 3 74 6 150 6 l137 1 0 -29z
m1038 -128 l3 -153 -36 0 c-32 0 -35 -2 -35 -30 l0 -30 -150 0 -150 0 0 30 0
30 125 0 125 0 0 30 0 30 -109 0 c-126 0 -141 4 -141 35 0 17 -7 24 -30 29
-29 5 -30 7 -30 61 0 54 1 56 30 62 23 4 30 11 30 28 0 13 6 26 13 28 6 3 89
5 182 4 l170 -2 3 -152z m422 128 c0 -26 4 -30 33 -33 l32 -3 0 -90 0 -90 -32
-3 c-29 -3 -33 -7 -33 -33 l0 -29 -150 0 -150 0 0 29 c0 24 -5 30 -30 35 l-30
6 0 85 0 86 30 6 c23 4 30 11 30 28 0 13 6 26 13 28 6 3 74 6 150 6 l137 1 0
-29z m310 -1 c0 -28 3 -30 34 -30 30 0 35 3 38 28 l3 27 85 0 85 0 3 -27 3
-27 -93 -3 c-93 -3 -93 -3 -96 -30 -3 -21 -9 -27 -30 -30 -27 -3 -27 -3 -30
-95 l-3 -93 -59 0 -60 0 0 149 c0 110 3 151 13 154 6 3 33 6 60 6 46 1 47 0
47 -29z m670 1 c0 -26 4 -30 33 -33 l32 -3 0 -90 0 -90 -32 -3 c-29 -3 -33 -7
-33 -33 l0 -29 -150 0 -150 0 0 29 c0 24 -5 30 -30 35 l-30 6 0 85 0 86 30 6
c23 4 30 11 30 28 0 13 6 26 13 28 6 3 74 6 150 6 l137 1 0 -29z m-2690 -471
c0 -13 7 -20 20 -20 13 0 20 -7 20 -20 0 -17 -7 -20 -40 -20 -33 0 -40 3 -40
20 0 17 -7 20 -40 20 -33 0 -40 -3 -40 -20 0 -13 -7 -20 -20 -20 -18 0 -20 -7
-20 -60 0 -53 2 -60 20 -60 13 0 20 -7 20 -20 0 -17 7 -20 40 -20 33 0 40 3
40 20 0 17 7 20 40 20 33 0 40 -3 40 -20 0 -13 -7 -20 -20 -20 -13 0 -20 -7
-20 -20 0 -18 -7 -20 -80 -20 -73 0 -80 2 -80 20 0 13 -7 20 -20 20 -13 0 -20
7 -20 20 0 13 -7 20 -20 20 -18 0 -20 7 -20 60 0 53 2 60 20 60 13 0 20 7 20
20 0 13 7 20 20 20 13 0 20 7 20 20 0 18 7 20 80 20 73 0 80 -2 80 -20z m480
-20 l0 -40 80 0 c73 0 80 -2 80 -20 0 -13 7 -20 20 -20 18 0 20 -7 20 -60 0
-53 -2 -60 -20 -60 -13 0 -20 -7 -20 -20 0 -19 -7 -20 -100 -20 -93 0 -100 1
-100 20 0 13 -7 20 -20 20 -19 0 -20 7 -20 120 l0 120 40 0 40 0 0 -40z m2360
0 l0 -40 40 0 c33 0 40 -3 40 -20 0 -17 -7 -20 -40 -20 l-40 0 0 -80 0 -80
-40 0 -40 0 0 80 0 80 -40 0 c-33 0 -40 3 -40 20 0 17 7 20 40 20 l40 0 0 40
0 40 40 0 40 0 0 -40z m-2680 -100 l0 -60 60 0 60 0 0 60 0 60 40 0 40 0 0
-100 c0 -93 -1 -100 -20 -100 -13 0 -20 -7 -20 -20 0 -19 -7 -20 -100 -20 -93
0 -100 1 -100 20 0 18 7 20 80 20 73 0 80 2 80 20 0 18 -7 20 -80 20 -73 0
-80 2 -80 20 0 13 -7 20 -20 20 -18 0 -20 7 -20 60 l0 60 40 0 40 0 0 -60z
m800 40 c0 -13 7 -20 20 -20 17 0 20 -7 20 -40 l0 -40 -100 0 c-93 0 -100 -1
-100 -20 0 -18 7 -20 80 -20 73 0 80 -2 80 -20 0 -19 -7 -20 -100 -20 -93 0
-100 1 -100 20 0 13 -7 20 -20 20 -18 0 -20 7 -20 60 0 53 2 60 20 60 13 0 20
7 20 20 0 19 7 20 100 20 93 0 100 -1 100 -20z m200 0 c0 -13 7 -20 20 -20 13
0 20 7 20 20 0 18 7 20 60 20 53 0 60 -2 60 -20 0 -18 -7 -20 -60 -20 -53 0
-60 -2 -60 -20 0 -13 -7 -20 -20 -20 -18 0 -20 -7 -20 -60 l0 -60 -40 0 -40 0
0 100 0 100 40 0 c33 0 40 -3 40 -20z m440 0 c0 -18 -7 -20 -80 -20 -73 0 -80
-2 -80 -20 0 -18 7 -20 80 -20 73 0 80 -2 80 -20 0 -13 7 -20 20 -20 13 0 20
-7 20 -20 0 -13 -7 -20 -20 -20 -13 0 -20 -7 -20 -20 0 -19 -7 -20 -120 -20
-113 0 -120 1 -120 20 0 19 7 20 100 20 93 0 100 1 100 20 0 18 -7 20 -80 20
-73 0 -80 2 -80 20 0 13 -7 20 -20 20 -13 0 -20 7 -20 20 0 13 7 20 20 20 13
0 20 7 20 20 0 19 7 20 100 20 93 0 100 -1 100 -20z m320 0 c0 -13 7 -20 20
-20 17 0 20 -7 20 -40 0 -33 -3 -40 -20 -40 -13 0 -20 -7 -20 -20 0 -18 -7
-20 -80 -20 l-80 0 0 -40 0 -40 -40 0 -40 0 0 120 0 120 120 0 c113 0 120 -1
120 -20z m320 0 c0 -13 7 -20 20 -20 18 0 20 -7 20 -60 0 -53 -2 -60 -20 -60
-13 0 -20 -7 -20 -20 0 -19 -7 -20 -100 -20 -93 0 -100 1 -100 20 0 13 -7 20
-20 20 -18 0 -20 7 -20 60 0 53 2 60 20 60 13 0 20 7 20 20 0 19 7 20 100 20
93 0 100 -1 100 -20z m200 0 c0 -13 7 -20 20 -20 13 0 20 7 20 20 0 18 7 20
60 20 53 0 60 -2 60 -20 0 -18 -7 -20 -60 -20 -53 0 -60 -2 -60 -20 0 -13 -7
-20 -20 -20 -18 0 -20 -7 -20 -60 l0 -60 -40 0 -40 0 0 100 0 100 40 0 c33 0
40 -3 40 -20z m-1840 -300 c0 -13 7 -20 20 -20 13 0 20 -7 20 -20 0 -17 -7
-20 -40 -20 -33 0 -40 3 -40 20 0 17 -7 20 -40 20 l-40 0 0 -40 0 -40 80 0
c73 0 80 -2 80 -20 0 -13 7 -20 20 -20 17 0 20 -7 20 -40 0 -33 -3 -40 -20
-40 -13 0 -20 -7 -20 -20 0 -19 -7 -20 -100 -20 -93 0 -100 1 -100 20 0 13 -7
20 -20 20 -13 0 -20 7 -20 20 0 17 7 20 40 20 33 0 40 -3 40 -20 0 -18 7 -20
60 -20 l60 0 0 40 0 40 -80 0 c-73 0 -80 2 -80 20 0 13 -7 20 -20 20 -17 0
-20 7 -20 40 0 33 3 40 20 40 13 0 20 7 20 20 0 18 7 20 80 20 73 0 80 -2 80
-20z m520 -20 l0 -40 80 0 c73 0 80 -2 80 -20 0 -13 7 -20 20 -20 18 0 20 -7
20 -80 l0 -80 -40 0 -40 0 0 80 0 80 -60 0 -60 0 0 -80 0 -80 -40 0 -40 0 0
140 0 140 40 0 40 0 0 -40z m1080 -80 l0 -120 40 0 c33 0 40 -3 40 -20 0 -19
-7 -20 -120 -20 -113 0 -120 1 -120 20 0 17 7 20 40 20 l40 0 0 100 c0 93 -1
100 -20 100 -13 0 -20 7 -20 20 0 18 7 20 60 20 l60 0 0 -120z m-1200 20 c0
-19 -7 -20 -100 -20 l-100 0 0 -60 0 -60 100 0 c93 0 100 -1 100 -20 0 -19 -7
-20 -120 -20 -113 0 -120 1 -120 20 0 13 -7 20 -20 20 -18 0 -20 7 -20 60 0
53 2 60 20 60 13 0 20 7 20 20 0 19 7 20 120 20 113 0 120 -1 120 -20z m600 0
c0 -13 7 -20 20 -20 18 0 20 -7 20 -60 0 -53 -2 -60 -20 -60 -13 0 -20 -7 -20
-20 0 -19 -7 -20 -100 -20 -93 0 -100 1 -100 20 0 13 -7 20 -20 20 -18 0 -20
7 -20 60 0 53 2 60 20 60 13 0 20 7 20 20 0 19 7 20 100 20 93 0 100 -1 100
-20z m320 0 c0 -13 7 -20 20 -20 18 0 20 -7 20 -60 0 -53 -2 -60 -20 -60 -13
0 -20 -7 -20 -20 0 -19 -7 -20 -100 -20 -93 0 -100 1 -100 20 0 13 -7 20 -20
20 -18 0 -20 7 -20 60 0 53 2 60 20 60 13 0 20 7 20 20 0 19 7 20 100 20 93 0
100 -1 100 -20z"/>
<path d="M2140 1780 l0 -60 95 0 95 0 0 60 0 60 -95 0 -95 0 0 -60z"/>
<path d="M2147 1654 c-4 -4 -7 -34 -7 -66 l0 -58 95 0 96 0 -3 63 -3 62 -85 3
c-47 1 -89 0 -93 -4z"/>
<path d="M5557 1714 c-4 -4 -7 -47 -7 -96 l0 -88 95 0 96 0 -3 93 -3 92 -85 3
c-47 1 -89 0 -93 -4z"/>
<path d="M2634 1706 c-3 -8 -4 -23 -2 -33 3 -16 14 -18 93 -18 l90 0 0 30 0
30 -88 3 c-70 2 -88 0 -93 -12z"/>
<path d="M3604 1707 c-3 -8 -4 -36 -2 -63 l3 -49 90 0 90 0 0 60 0 60 -88 3
c-68 2 -89 0 -93 -11z"/>
<path d="M4097 1714 c-4 -4 -7 -47 -7 -96 l0 -88 95 0 96 0 -3 93 -3 92 -85 3
c-47 1 -89 0 -93 -4z"/>
<path d="M5077 1714 c-4 -4 -7 -47 -7 -96 l0 -88 95 0 96 0 -3 93 -3 92 -85 3
c-47 1 -89 0 -93 -4z"/>
<path d="M3100 1120 l0 -60 60 0 60 0 0 60 0 60 -60 0 -60 0 0 -60z"/>
<path d="M3420 1160 c0 -18 7 -20 60 -20 53 0 60 2 60 20 0 18 -7 20 -60 20
-53 0 -60 -2 -60 -20z"/>
<path d="M4380 1140 l0 -40 60 0 60 0 0 40 0 40 -60 0 -60 0 0 -40z"/>
<path d="M4700 1120 l0 -60 60 0 60 0 0 60 0 60 -60 0 -60 0 0 -60z"/>
<path d="M4060 740 l0 -60 60 0 60 0 0 60 0 60 -60 0 -60 0 0 -60z"/>
<path d="M4380 740 l0 -60 60 0 60 0 0 60 0 60 -60 0 -60 0 0 -60z"/>
</g>
</svg>
